<?xml  version="1.0" encoding="UTF-8"?>
<!DOCTYPE svg PUBLIC "-//W3C//DTD SVG 1.0//EN" "http://www.w3.org/TR/2001/REC-SVG-20010904/DTD/svg10.dtd" >
<svg xmlns="http://www.w3.org/2000/svg" >
<metadata>
<version>1.0</version>
<id><![CDATA[Proxima N W01 Cd Smbd]]></id>
<vendor>Monotype Imaging Inc.</vendor>
<credits>
<name>Fonts.com WebFonts</name>
<URL>http://webfonts.fonts.com</URL>
<role>Home of the Web fonts</role>
</credits>
<license>
<URL>http://webfonts.fonts.com/Legal</URL>
</license>
<copyright><![CDATA[Copyright (c) Mark Simonson, 2005. All rights reserved.]]></copyright>
<trademark><![CDATA[Proxima Nova is a trademark of Mark Simonson.]]></trademark>
<licensee>
<name></name>
</licensee>
</metadata>
<defs >
<font horiz-adv-x="441" id="cc109ce0-d5dc-404f-a584-bf82c9212afc">
<font-face font-family="" panose-1="2 0 5 6 3 0 0 2 0 4" ascent="741" descent="-259" units-per-em="1000" alphabetic="0">
</font-face>
<missing-glyph horiz-adv-x="0" />

<glyph unicode="&#xA;" />
<glyph unicode="&#xD;" horiz-adv-x="0" />
<glyph unicode=" " horiz-adv-x="212" />
<glyph unicode="!" horiz-adv-x="242" d="M79 201L60 667H182L164 201H79ZM121 -11Q93 -11 74 9T54 57Q54 84 73 104T121 124Q149 124 168 104T188 57Q188 30 169 10T121 -11Z"  />
<glyph unicode="&quot;" horiz-adv-x="373" d="M83 395Q73 454 66 502Q63 522 60 542T54 578T51 606T49 621Q49 644 66 660T106 677Q129 677 145 661T162 621Q162 618 161 607T157 579T151 542T145 502Q138 454 129 395H83ZM245 395Q235 454 228 502Q225 522 222 542T216 578T213 606T211 621Q211 644 227 660T268 677Q291 677 307 661T324 621Q324 618 323 607T319 579T313 542T307 502Q299 454 290 395H245Z"  />
<glyph unicode="#" horiz-adv-x="524" d="M209 0L260 176H175L126 0H50L99 176H18L36 242H119L170 425H87L104 490H189L239 667H315L265 490H349L398 667H474L424 490H506L490 425H405L354 242H439L422 176H335L285 0H209ZM329 425H246L195 242H277L329 425Z"  />
<glyph unicode="$" horiz-adv-x="487" d="M213 -11Q152 -6 106 16T26 73L82 159Q105 133 138 114T213 89V293Q183 306 153 322T100 361T61 415T46 492Q46 526 57 557T91 612T143 652T213 675V768H290V676Q337 671 376 653T445 606L391 522Q369 544 344 557T290 575V389Q320 375 350 359T404 318T443 262T458 184Q458 148 448 116T416 59T364 16T290 -8V-100H213V-11ZM345 175Q345 203 330 222T290 256V95Q317 106 331 127T345 175ZM159 498Q159 474 174 457T213 426V573Q188 564 174 545T159 498Z"  />
<glyph unicode="%" horiz-adv-x="663" d="M172 347Q139 347 112 359T66 394T37 446T26 511Q26 546 36 576T66 629T112 664T172 677Q205 677 232 665T278 630T307 577T318 511Q318 476 308 446T278 394T232 360T172 347ZM129 0L480 667H537L185 0H129ZM491 -12Q458 -12 431 0T386 35T357 87T346 152Q346 187 356 217T385 270T431 306T491 319Q524 319 551 306T597 271T626 218T637 152Q637 117 627 87T597 35T551 1T491 -12ZM172 410Q206 410 226 438T246 511Q246 557 226 585T172 613Q138 613 118 585T98 511Q98 466 118 438T172 410ZM491 52Q525 52 545 79T566 152Q566 198 546 226T491 255Q457 255 437 227T417 152Q417 107 437 80T491 52Z"  />
<glyph unicode="&amp;" horiz-adv-x="535" d="M408 0Q398 12 387 26T364 55Q332 24 294 6T208 -12Q170 -12 138 0T81 35T44 94T30 174Q30 212 40 241T67 294T106 336T152 371Q133 409 122 446T110 516Q110 551 121 580T153 631T201 665T262 677Q291 677 316 668T361 640T391 597T402 541Q402 504 390 477T359 427T315 387T265 353Q278 330 291 310T317 273Q330 253 342 235T367 200Q384 235 396 270T416 334L497 297Q483 253 464 210T422 129Q445 99 471 68T527 0H408ZM224 68Q250 68 272 81T315 118Q295 144 277 168T247 211Q233 232 219 254T190 300Q165 277 150 249T134 181Q134 128 160 98T224 68ZM205 515Q205 494 212 470T230 420Q266 443 290 470T315 537Q315 570 300 586T264 603Q238 603 222 581T205 515Z"  />
<glyph unicode="&apos;" horiz-adv-x="211" d="M83 395Q73 454 66 502Q63 522 60 542T54 578T51 606T49 621Q49 644 66 660T106 677Q129 677 145 661T162 621Q162 618 161 607T157 579T151 542T145 502Q138 454 129 395H83Z"  />
<glyph unicode="(" horiz-adv-x="257" d="M171 -199Q111 -105 78 8T45 243Q45 364 78 477T171 685L238 646Q197 553 175 458T153 243Q153 184 158 131T175 29T202 -66T238 -159L171 -199Z"  />
<glyph unicode=")" horiz-adv-x="257" d="M19 -159Q39 -113 55 -67T82 29T98 131T104 243Q104 303 99 356T82 458T55 553T19 646L85 685Q146 590 179 477T212 243Q212 122 179 9T85 -199L19 -159Z"  />
<glyph unicode="*" horiz-adv-x="330" d="M138 379L143 491L49 430L22 477L122 528L22 579L49 625L143 565L138 677H192L186 565L281 625L308 579L208 528L308 477L281 430L186 491L192 379H138Z"  />
<glyph unicode="+" horiz-adv-x="442" d="M256 305V127H186V305H29V370H186V541H256V370H413V305H256Z"  />
<glyph unicode="&#x2c;" horiz-adv-x="242" d="M194 35Q194 -16 169 -59T102 -132L57 -95Q81 -80 102 -54T128 -1Q122 -3 112 -3Q87 -3 71 14T54 58Q54 85 73 104T119 124Q149 124 171 101T194 35Z"  />
<glyph unicode="-" horiz-adv-x="269" d="M30 199V285H239V199H30Z"  />
<glyph unicode="." horiz-adv-x="242" d="M121 -11Q94 -11 74 9T54 57Q54 84 74 104T121 124Q149 124 168 104T188 57Q188 29 169 9T121 -11Z"  />
<glyph unicode="/" horiz-adv-x="266" d="M0 -20L192 687H266L74 -20H0Z"  />
<glyph unicode="0" horiz-adv-x="526" d="M263 -12Q203 -12 161 18T91 98T52 209T39 333Q39 396 51 457T91 567T160 646T263 677Q324 677 366 647T436 568T475 458T488 333Q488 271 476 209T436 98T367 19T263 -12ZM263 87Q296 87 318 107T352 162T370 240T375 333Q375 382 370 426T353 505T318 559T263 579Q230 579 209 559T175 505T157 427T152 333Q152 285 157 241T174 162T208 108T263 87Z"  />
<glyph unicode="1" horiz-adv-x="352" d="M178 0V523L76 416L11 484L192 667H288V0H178Z"  />
<glyph unicode="2" horiz-adv-x="507" d="M48 0V90Q135 181 192 242T282 346T329 420T342 483Q342 528 314 553T246 579Q200 579 165 559T104 500L36 569Q74 622 127 649T247 677Q291 677 329 664T395 626T439 565T455 484Q455 444 441 406T396 322T320 223T210 98H458V0H48Z"  />
<glyph unicode="3" horiz-adv-x="496" d="M240 -12Q163 -12 108 20T24 97L92 166Q117 131 153 109T235 87Q292 87 318 115T345 192Q345 220 336 239T312 270T275 287T229 292Q213 292 196 292T171 290V390Q179 389 196 389T227 389Q275 389 305 411T336 481Q336 531 307 555T232 579Q190 579 157 560T98 507L33 571Q66 620 118 648T240 677Q285 677 323 666T388 632T431 576T446 498Q446 468 436 443T409 397T370 364T323 345Q347 341 370 329T413 295T443 246T455 182Q455 140 440 104T398 43T330 3T240 -12Z"  />
<glyph unicode="4" horiz-adv-x="492" d="M290 0V155H22V248L258 667H400V252H470V155H400V0H290ZM290 552L122 252H290V552Z"  />
<glyph unicode="5" horiz-adv-x="512" d="M256 -12Q180 -12 130 16T44 95L113 165Q139 127 173 107T253 87Q278 87 298 97T333 123T354 162T362 209Q362 268 335 300T258 332Q224 332 197 319T144 274L63 297V667H437V570H174V372Q193 396 225 412T296 428Q333 428 365 414T422 373T460 305T474 212Q474 163 459 122T415 51T346 5T256 -12Z"  />
<glyph unicode="6" horiz-adv-x="511" d="M270 -12Q206 -12 162 16T91 92T51 202T39 333Q39 404 54 467T100 576T178 650T288 677Q341 677 383 656T452 600L396 519Q376 548 352 563T289 579Q254 579 229 560T186 508T160 435T151 351V336Q160 353 174 369T207 398T248 418T295 426Q332 426 365 413T423 372T462 305T477 211Q477 165 463 125T421 54T356 6T270 -12ZM264 87Q290 87 309 97T340 125T358 163T364 207Q364 241 356 264T333 303T301 324T262 331Q226 331 198 307T152 248Q153 222 159 194T178 142T212 103T264 87Z"  />
<glyph unicode="7" horiz-adv-x="448" d="M98 0L302 570H23V667H427V591L217 0H98Z"  />
<glyph unicode="8" horiz-adv-x="507" d="M254 -12Q207 -12 167 0T99 35T54 91T38 168Q38 199 48 227T77 277T118 317T167 344Q144 353 122 367T84 401T57 447T47 505Q47 550 64 582T111 636T178 667T254 677Q293 677 330 667T396 636T443 583T461 505Q461 473 451 448T424 402T385 367T340 344Q365 334 388 317T430 278T459 227T470 168Q470 125 454 92T409 35T341 0T254 -12ZM254 385Q264 387 280 394T311 413T338 443T350 487Q350 530 324 554T254 579Q210 579 184 555T158 487Q158 462 169 444T196 413T228 394T254 385ZM254 87Q297 87 328 111T359 183Q359 211 347 232T317 267T282 289T254 299Q243 297 226 290T191 268T162 232T149 183Q149 136 179 112T254 87Z"  />
<glyph unicode="9" horiz-adv-x="511" d="M223 -11Q170 -11 128 10T59 66L115 147Q135 118 159 103T222 88Q258 88 284 107T327 159T352 232T360 315V331Q351 313 337 297T303 268T262 248T216 240Q179 240 146 253T88 294T49 361T34 455Q34 501 48 541T90 612T155 660T241 678Q304 678 348 650T419 575T459 465T472 333Q472 262 457 199T410 90T333 16T223 -11ZM248 336Q285 336 313 360T359 418Q357 443 352 471T333 524T300 564T248 580Q222 580 203 569T172 541T153 503T147 459Q147 425 155 402T178 364T210 343T248 336Z"  />
<glyph unicode=":" horiz-adv-x="242" d="M121 356Q94 356 74 376T54 423Q54 451 74 470T121 490Q149 490 168 471T188 423Q188 396 169 376T121 356ZM121 -11Q94 -11 74 9T54 57Q54 84 74 104T121 124Q149 124 168 104T188 57Q188 29 169 9T121 -11Z"  />
<glyph unicode=";" horiz-adv-x="242" d="M121 356Q94 356 74 376T54 423Q54 451 74 470T121 490Q149 490 168 471T188 423Q188 397 169 377T121 356ZM194 38Q194 -13 169 -56T102 -129L57 -92Q69 -85 80 -74T102 -51T118 -25T128 2Q126 1 121 0T112 -1Q87 -1 71 16T54 61Q54 88 73 107T119 127Q149 127 171 104T194 38Z"  />
<glyph unicode="&lt;" horiz-adv-x="442" d="M29 299V370L413 546V469L106 334L413 201V124L29 299Z"  />
<glyph unicode="=" horiz-adv-x="442" d="M29 397V462H413V397H29ZM29 206V271H413V206H29Z"  />
<glyph unicode="&gt;" horiz-adv-x="442" d="M29 124V201L336 334L29 469V546L413 370V299L29 124Z"  />
<glyph unicode="?" horiz-adv-x="389" d="M157 194Q127 228 127 280Q127 324 147 352T191 404T236 451T256 508Q256 536 236 558T177 580Q145 580 122 567T78 529L22 600Q54 638 98 658T195 678Q235 678 267 667T321 635T356 588T368 528Q368 494 357 468T330 422T295 384T260 349T233 314T222 272Q222 259 227 246T241 225L157 194ZM194 -11Q167 -11 147 9T127 57Q127 84 147 104T194 124Q222 124 241 104T261 57Q261 29 242 9T194 -11Z"  />
<glyph unicode="@" horiz-adv-x="702" d="M310 -70Q248 -70 198 -48T111 14T55 109T35 230Q35 311 65 385T145 515T263 605T404 639Q462 639 510 619T593 561T647 473T666 362Q666 299 651 248T611 161T555 105T493 85Q454 85 432 106T405 158L404 165Q381 132 349 109T274 85Q221 85 186 121T150 231Q150 282 166 330T211 415T278 476T359 499Q397 499 422 479T458 429L469 483H558L503 224Q502 220 502 213T501 200Q501 154 536 154Q548 154 564 166T594 205T617 269T627 361Q627 416 611 461T565 537T494 585T401 602Q334 602 275 571T170 488T99 369T73 231Q73 174 90 125T138 41T214 -15T314 -35Q362 -35 401 -20T478 21L497 -7Q454 -37 408 -53T310 -70ZM310 157Q329 157 344 163T373 180T396 204T415 230L444 367Q441 377 436 387T422 407T402 421T375 427Q345 427 321 410T279 365T253 305T243 241Q243 203 260 180T310 157Z"  />
<glyph unicode="A" horiz-adv-x="536" d="M413 0L377 132H158L122 0H2L201 667H334L533 0H413ZM268 549L181 230H355L268 549Z"  />
<glyph unicode="B" horiz-adv-x="540" d="M64 0V667H316Q358 667 390 654T444 618T477 564T488 497Q488 434 458 395T383 344Q408 340 429 326T465 289T490 239T499 180Q499 141 488 108T456 51T401 14T324 0H64ZM292 389Q334 389 354 414T374 479Q374 518 354 544T292 570H175V389H292ZM296 98Q341 98 363 123T385 195Q385 235 363 263T296 291H175V98H296Z"  />
<glyph unicode="C" horiz-adv-x="547" d="M311 -12Q248 -12 198 14T113 85T58 194T39 333Q39 408 58 471T112 581T198 652T311 678Q354 678 387 666T446 633T490 586T522 531L430 490Q413 530 383 555T311 580Q274 580 245 562T195 510T163 432T152 333Q152 280 163 235T194 157T244 106T311 87Q355 87 385 115T431 185L523 144Q510 115 492 87T449 37T389 2T311 -12Z"  />
<glyph unicode="D" horiz-adv-x="583" d="M64 0V667H263Q330 667 382 642T471 573T525 467T544 333Q544 260 526 199T471 94T383 25T263 0H64ZM263 98Q304 98 335 115T387 164T419 238T430 333Q430 385 420 429T388 504T336 552T263 570H175V98H263Z"  />
<glyph unicode="E" horiz-adv-x="472" d="M64 0V667H429V570H175V389H422V291H175V98H429V0H64Z"  />
<glyph unicode="F" horiz-adv-x="464" d="M64 0V667H429V570H175V389H422V291H175V0H64Z"  />
<glyph unicode="G" horiz-adv-x="576" d="M311 -13Q249 -13 199 12T114 82T59 192T39 333Q39 411 58 474T113 583T199 653T311 678Q351 678 384 667T443 637T489 591T523 536L433 494Q415 531 385 555T311 580Q275 580 246 563T196 514T164 436T152 333Q152 276 163 231T196 153T246 104T311 86Q348 86 376 100T422 134V258H282V355H527V90Q487 42 434 15T311 -13Z"  />
<glyph unicode="H" horiz-adv-x="593" d="M419 0V294H175V0H64V667H175V392H419V667H530V0H419Z"  />
<glyph unicode="I" horiz-adv-x="239" d="M64 0V667H175V0H64Z"  />
<glyph unicode="J" horiz-adv-x="409" d="M150 -12Q109 -12 73 1T8 43L51 130Q68 110 90 99T140 87Q185 87 210 113T235 187V667H346V184Q346 133 332 96T291 35T229 0T150 -12Z"  />
<glyph unicode="K" horiz-adv-x="535" d="M397 0L225 275L175 199V0H64V667H175V346L382 667H512L294 352L528 0H397Z"  />
<glyph unicode="L" horiz-adv-x="434" d="M64 0V667H175V98H406V0H64Z"  />
<glyph unicode="M" horiz-adv-x="713" d="M540 0V460L378 0H335L175 460V0H64V667H214L357 261L501 667H650V0H540Z"  />
<glyph unicode="N" horiz-adv-x="592" d="M422 0L175 431V0H64V667H176L417 248V667H528V0H422Z"  />
<glyph unicode="O" horiz-adv-x="612" d="M306 -12Q243 -12 193 14T109 87T57 196T39 333Q39 406 57 469T109 579T193 651T306 678Q369 678 419 652T503 579T555 470T573 333Q573 259 555 196T503 87T419 15T306 -12ZM306 87Q343 87 372 106T420 158T450 236T460 333Q460 385 450 430T421 509T372 561T306 580Q268 580 240 561T192 509T162 431T152 333Q152 281 162 236T191 158T239 106T306 87Z"  />
<glyph unicode="P" horiz-adv-x="513" d="M64 0V667H291Q340 667 377 651T438 606T475 540T488 460Q488 418 476 380T439 314T377 269T291 252H175V0H64ZM278 350Q323 350 349 380T375 460Q375 510 349 540T278 570H175V350H278Z"  />
<glyph unicode="Q" horiz-adv-x="612" d="M306 -12Q243 -12 193 14T109 87T57 196T39 333Q39 406 57 469T109 579T193 651T306 678Q369 678 419 652T503 579T555 470T573 333Q573 248 550 179T481 61L512 13L435 -36L407 8Q361 -12 306 -12ZM306 87Q331 87 352 96L280 211L357 259L420 158Q440 191 450 236T460 333Q460 385 450 430T421 509T372 561T306 580Q268 580 240 561T192 509T162 431T152 333Q152 281 162 236T191 158T239 106T306 87Z"  />
<glyph unicode="R" horiz-adv-x="533" d="M370 0L257 252H175V0H64V667H294Q337 667 373 652T434 610T474 545T488 461Q488 417 477 384T449 328T409 291T365 271L494 0H370ZM278 350Q323 350 349 380T375 460Q375 510 349 540T278 570H175V350H278Z"  />
<glyph unicode="S" horiz-adv-x="486" d="M237 -12Q165 -12 112 11T22 73L78 159Q105 128 146 108T237 87Q289 87 315 113T341 175Q341 209 319 230T264 268T192 301T120 341T64 400T42 492Q42 531 56 565T98 624T163 663T249 678Q308 678 356 660T441 606L387 522Q358 551 322 565T246 579Q205 579 180 557T155 498Q155 468 177 449T232 414T304 380T376 339T432 277T454 184Q454 143 440 108T399 46T332 4T237 -12Z"  />
<glyph unicode="T" horiz-adv-x="462" d="M176 0V570H23V667H439V570H286V0H176Z"  />
<glyph unicode="U" horiz-adv-x="592" d="M296 -12Q187 -12 126 49T64 224V667H175V223Q175 156 206 121T296 86Q354 86 385 121T417 223V667H528V224Q528 110 467 49T296 -12Z"  />
<glyph unicode="V" horiz-adv-x="536" d="M201 0L2 667H122L268 131L413 667H533L334 0H201Z"  />
<glyph unicode="W" horiz-adv-x="745" d="M468 0L372 479L277 0H161L10 667H129L225 169L328 667H417L521 169L616 667H735L584 0H468Z"  />
<glyph unicode="X" horiz-adv-x="535" d="M405 0L267 254L130 0H2L199 341L14 667H141L267 427L393 667H521L336 342L533 0H405Z"  />
<glyph unicode="Y" horiz-adv-x="521" d="M206 0V278L-1 667H122L261 382L400 667H522L316 278V0H206Z"  />
<glyph unicode="Z" horiz-adv-x="475" d="M38 0V92L296 570H38V667H430V577L171 98H437V0H38Z"  />
<glyph unicode="[" horiz-adv-x="230" d="M40 -190V678H212V609H113V-121H212V-190H40Z"  />
<glyph unicode="\" horiz-adv-x="266" d="M1 687H74L266 -20H193L1 687Z"  />
<glyph unicode="]" horiz-adv-x="230" d="M17 -190V-121H116V609H17V678H190V-190H17Z"  />
<glyph unicode="^" horiz-adv-x="386" d="M292 333L193 592L94 333H19L156 667H230L367 333H292Z"  />
<glyph unicode="_" horiz-adv-x="422" d="M-3 -109V-40H425V-109H-3Z"  />
<glyph unicode="`" horiz-adv-x="202" d="M134 556L0 700H93L202 556H134Z"  />
<glyph unicode="a" horiz-adv-x="467" d="M309 0V49Q287 19 253 4T182 -12Q153 -12 126 -2T79 29T46 80T34 149Q34 188 46 217T78 266T126 296T182 306Q219 306 253 292T309 248V318Q309 362 285 386T215 410Q149 410 95 355L56 425Q93 462 139 478T233 495Q271 495 303 486T358 457T395 406T408 330V0H309ZM218 57Q245 57 270 71T309 110V183Q295 209 270 223T218 237Q179 237 157 212T134 147Q134 108 156 83T218 57Z"  />
<glyph unicode="b" horiz-adv-x="494" d="M159 142Q172 115 198 96T253 76Q279 76 298 88T330 123T349 176T356 241Q356 276 350 306T331 359T299 394T253 407Q224 407 198 387T159 340V142ZM59 0V667H159V418Q181 457 214 476T283 495Q323 495 356 477T411 426T446 345T459 241Q459 183 447 136T412 56T356 6T283 -12Q246 -12 214 8T159 64V0H59Z"  />
<glyph unicode="c" horiz-adv-x="415" d="M247 -12Q199 -12 160 7T93 60T50 140T35 242Q35 297 50 343T92 423T159 476T247 495Q301 495 336 476T394 430L343 362Q308 407 257 407Q228 407 206 394T169 359T146 307T138 242Q138 207 146 177T169 125T206 89T257 76Q307 76 343 121L394 53Q372 26 337 7T247 -12Z"  />
<glyph unicode="d" horiz-adv-x="494" d="M335 0V64Q313 28 280 8T211 -12Q170 -12 138 5T83 56T48 136T35 241Q35 298 47 345T82 425T137 477T211 495Q246 495 279 476T335 418V667H435V0H335ZM241 76Q270 76 296 95T335 142V341Q322 368 296 387T241 407Q215 407 196 395T164 360T145 307T138 241Q138 206 144 176T163 124T195 89T241 76Z"  />
<glyph unicode="e" horiz-adv-x="474" d="M252 -12Q202 -12 162 6T94 58T50 139T35 242Q35 294 49 340T90 421T155 475T242 495Q291 495 328 476T391 422T430 340T443 238V209H136Q137 179 146 154T171 110T210 81T262 70Q291 70 320 83T371 122L419 62Q388 27 345 8T252 -12ZM346 280Q346 302 340 326T322 369T290 401T241 414Q213 414 194 401T161 369T142 326T135 280H346Z"  />
<glyph unicode="f" horiz-adv-x="274" d="M79 0V396H16V483H79V528Q79 599 115 638T215 677Q242 677 267 669T312 643L278 573Q268 583 258 588T233 593Q179 593 179 528V483H259V396H179V0H79Z"  />
<glyph unicode="g" horiz-adv-x="493" d="M226 -196Q174 -196 133 -183T55 -135L96 -58Q145 -112 221 -112Q243 -112 264 -106T300 -85T325 -47T335 9V78Q313 41 280 20T211 -1Q170 -1 138 16T83 65T48 143T35 247Q35 362 82 428T211 495Q246 495 279 476T335 418V483H434V17Q434 -46 416 -87T369 -152T303 -186T226 -196ZM241 88Q270 88 296 107T335 154V341Q322 368 296 387T241 407Q189 407 164 362T138 247Q138 178 163 133T241 88Z"  />
<glyph unicode="h" horiz-adv-x="485" d="M327 0V331Q327 373 308 390T257 407Q225 407 199 387T159 340V0H59V667H159V418Q179 447 217 471T300 495Q365 495 395 462T426 365V0H327Z"  />
<glyph unicode="i" horiz-adv-x="218" d="M109 544Q83 544 65 562T46 606Q46 632 64 650T109 669Q135 669 153 651T171 606Q171 580 153 562T109 544ZM59 0V483H159V0H59Z"  />
<glyph unicode="j" horiz-adv-x="218" d="M109 544Q83 544 65 562T46 606Q46 632 64 650T109 669Q135 669 153 651T171 606Q171 580 153 562T109 544ZM19 -196Q-12 -196 -31 -189T-68 -165L-40 -90Q-31 -100 -20 -106T7 -112Q30 -112 44 -96T59 -41V483H159V-41Q159 -117 125 -156T19 -196Z"  />
<glyph unicode="k" horiz-adv-x="456" d="M331 0L217 202L159 124V0H59V667H159V246L329 483H445L285 266L448 0H331Z"  />
<glyph unicode="l" horiz-adv-x="218" d="M59 0V667H159V0H59Z"  />
<glyph unicode="m" horiz-adv-x="722" d="M563 0V336Q563 370 549 388T503 407Q473 407 448 386T411 340V0H311V336Q311 369 297 388T251 407Q221 407 197 386T159 340V0H59V483H159V418Q166 431 179 444T210 469T249 487T293 495Q339 495 368 473T406 410Q415 426 429 441T461 469T501 488T545 495Q600 495 631 465T663 368V0H563Z"  />
<glyph unicode="n" horiz-adv-x="485" d="M326 0V329Q326 372 308 389T257 407Q225 407 199 387T159 340V0H59V483H159V418Q179 447 216 471T299 495Q365 495 395 461T426 364V0H326Z"  />
<glyph unicode="o" horiz-adv-x="488" d="M244 -12Q193 -12 154 8T88 64T49 145T35 242Q35 293 48 339T88 419T153 474T244 495Q295 495 334 475T400 420T439 339T453 242Q453 191 440 145T400 64T335 9T244 -12ZM244 76Q271 76 291 89T324 126T343 179T350 242Q350 275 344 304T324 357T291 393T244 407Q217 407 197 394T164 357T145 305T138 242Q138 209 144 179T164 126T197 90T244 76Z"  />
<glyph unicode="p" horiz-adv-x="492" d="M283 -12Q247 -12 214 7T159 65V-184H59V483H159V419Q180 455 213 475T283 495Q324 495 356 478T412 427T447 347T459 242Q459 184 447 137T412 57T357 6T283 -12ZM253 76Q279 76 298 89T330 124T349 177T356 242Q356 277 350 307T331 359T299 394T253 407Q224 407 198 388T159 341V143Q172 116 198 96T253 76Z"  />
<glyph unicode="q" horiz-adv-x="492" d="M240 76Q269 76 295 96T334 143V341Q321 369 295 388T240 407Q214 407 195 395T163 360T144 307T137 242Q137 207 143 177T162 125T194 89T240 76ZM210 -12Q169 -12 137 6T81 57T46 137T34 242Q34 300 46 347T81 427T136 477T210 495Q246 495 279 475T334 419V483H433V-184H334V65Q311 26 278 7T210 -12Z"  />
<glyph unicode="r" horiz-adv-x="308" d="M59 0V483H159V412Q180 447 215 470T292 494V395Q280 398 266 398Q235 398 205 378T159 331V0H59Z"  />
<glyph unicode="s" horiz-adv-x="401" d="M198 -12Q142 -12 97 6T21 57L66 127Q88 103 123 85T196 67Q234 67 255 84T276 130Q276 153 259 167T214 191T157 213T99 241T55 286T37 357Q37 385 48 410T80 454T132 484T203 495Q254 495 293 478T362 433L320 365Q302 387 272 401T205 416Q171 416 151 400T131 360Q131 339 149 326T193 303T251 281T308 252T353 206T371 132Q371 101 359 75T325 29T270 -1T198 -12Z"  />
<glyph unicode="t" horiz-adv-x="283" d="M189 -12Q77 -12 77 108V396H14V483H77V615H177V483H257V396H177V129Q177 104 185 90T214 76Q226 76 236 80T252 92L276 17Q262 3 241 -4T189 -12Z"  />
<glyph unicode="u" horiz-adv-x="485" d="M326 0V64Q306 34 269 11T185 -12Q120 -12 90 21T59 118V483H159V153Q159 111 177 94T228 76Q260 76 286 96T326 142V483H426V0H326Z"  />
<glyph unicode="v" horiz-adv-x="430" d="M161 0L2 483H108L215 119L323 483H429L269 0H161Z"  />
<glyph unicode="w" horiz-adv-x="667" d="M427 0L334 355L240 0H136L7 483H110L194 131L286 483H378L472 131L557 483H660L531 0H427Z"  />
<glyph unicode="x" horiz-adv-x="424" d="M309 0L212 176L115 0H6L150 246L14 483H123L212 317L301 483H410L274 246L418 0H309Z"  />
<glyph unicode="y" horiz-adv-x="430" d="M57 -101Q64 -105 73 -106T89 -108Q109 -108 122 -100T144 -68L164 -10L2 483H108L215 120L323 483H429L238 -91Q218 -152 183 -174T96 -196Q85 -196 69 -194T42 -189L57 -101Z"  />
<glyph unicode="z" horiz-adv-x="399" d="M38 0V76L231 396H38V483H356V410L163 87H360V0H38Z"  />
<glyph unicode="{" horiz-adv-x="244" d="M182 -190Q158 -190 136 -181T96 -155T68 -114T57 -60V146Q57 174 44 194T5 214V274Q31 274 44 294T57 342V547Q57 577 67 601T95 642T135 669T182 678H227V609H182Q161 609 146 592T131 547V333Q131 301 121 278T85 244Q110 233 120 210T131 155V-60Q131 -87 146 -104T182 -122H227V-190H182Z"  />
<glyph unicode="|" horiz-adv-x="197" d="M64 -20V687H133V-20H64Z"  />
<glyph unicode="}" horiz-adv-x="244" d="M17 -122H62Q83 -122 98 -105T114 -60V155Q114 187 124 210T159 244Q134 255 124 278T114 333V547Q114 575 99 592T62 609H17V678H62Q86 678 109 669T149 643T177 601T188 547V342Q188 314 201 294T240 274V214Q214 214 201 194T188 146V-60Q188 -90 178 -114T150 -155T109 -181T62 -190H17V-122Z"  />
<glyph unicode="~" horiz-adv-x="457" d="M430 660Q427 619 421 576T401 498T363 441T300 418Q271 418 254 431T225 465T208 510T195 554T180 588T157 602Q128 602 117 553T97 417L27 425Q30 466 36 508T57 586T95 643T157 666Q186 666 203 653T232 619T250 574T263 530T277 496T300 482Q329 482 341 530T360 667L430 660Z"  />
<glyph unicode="&#xA0;" horiz-adv-x="212" />
<glyph unicode="&#xA1;" horiz-adv-x="242" d="M79 282H164L183 -184H61L79 282ZM54 427Q54 454 74 473T121 493Q149 493 169 474T189 427Q189 399 169 380T121 360Q94 360 74 379T54 427Z"  />
<glyph unicode="&#xA2;" horiz-adv-x="415" d="M211 -9Q170 -2 138 19T82 74T47 149T35 242Q35 291 47 334T82 410T137 464T211 492V565H285V492Q323 486 349 469T394 430L343 362Q318 394 285 403V79Q317 88 343 121L394 53Q376 31 350 14T285 -9V-100H211V-9ZM138 242Q138 188 157 146T211 86V396Q176 379 157 338T138 242Z"  />
<glyph unicode="&#xA3;" horiz-adv-x="471" d="M26 338H95Q76 367 62 399T47 478Q47 521 63 557T108 620T174 662T252 677Q319 677 368 647T438 557L350 511Q339 543 317 564T261 586Q242 586 225 579T194 557T174 523T166 476Q166 452 170 434T182 399T199 368T217 338H328V271H242Q245 254 245 237Q245 200 227 165T180 110Q191 115 202 116T224 118Q244 118 258 113T286 102T312 91T342 86Q369 86 389 97T420 121L459 34Q442 14 410 1T335 -13Q306 -13 286 -6T250 9T218 24T181 31Q159 31 134 21T82 -7L45 71Q91 96 118 133T146 211Q146 228 142 242T133 271H26V338Z"  />
<glyph unicode="&#xA4;" horiz-adv-x="516" d="M258 93Q191 93 143 127L73 57L13 116L86 188Q67 219 58 255T49 333Q49 374 58 411T86 479L13 552L73 612L144 540Q167 555 195 563T258 572Q292 572 320 564T371 540L443 612L503 552L430 478Q467 415 467 333Q467 292 458 255T429 187L503 115L443 55L372 126Q349 110 321 102T258 93ZM258 182Q286 182 307 194T341 228T362 276T369 333Q369 363 362 390T342 437T307 470T258 483Q230 483 210 471T176 438T155 390T148 333Q148 303 155 276T175 228T209 195T258 182Z"  />
<glyph unicode="&#xA5;" horiz-adv-x="521" d="M206 0V119H23V184H206V278H23V343H171L-1 667H122L261 382L400 667H522L350 343H498V278H316V184H498V119H316V0H206Z"  />
<glyph unicode="&#xA6;" horiz-adv-x="197" d="M64 -20V296H133V-20H64ZM64 371V687H133V371H64Z"  />
<glyph unicode="&#xA7;" horiz-adv-x="404" d="M371 315Q371 277 352 244T292 191Q330 169 350 139T371 64Q371 32 358 5T322 -41T268 -70T198 -81Q137 -81 95 -62T22 -11L66 54Q75 44 88 33T117 13T153 -3T194 -9Q232 -9 254 10T276 59Q276 85 259 100T214 128T157 151T99 180T55 224T37 293Q37 338 64 369T130 413Q82 437 60 469T37 544Q37 573 49 597T82 639T133 667T199 677Q260 677 298 659T361 614L320 554Q296 581 267 593T206 606Q172 606 152 589T131 545Q131 521 149 507T193 482T251 459T308 430T353 385T371 315ZM278 296Q278 315 272 329T255 353T231 370T205 383Q160 372 145 352T129 308Q129 274 154 255T221 219Q278 245 278 296Z"  />
<glyph unicode="&#xA8;" horiz-adv-x="279" d="M287 607Q287 584 270 568T230 551Q207 551 191 567T174 607Q174 630 190 646T230 663Q253 663 270 647T287 607ZM105 607Q105 584 89 568T49 551Q26 551 9 567T-8 607Q-8 630 9 646T49 663Q72 663 88 647T105 607Z"  />
<glyph unicode="&#xA9;" horiz-adv-x="778" d="M734 334Q734 263 707 200T633 90T524 16T389 -11Q318 -11 255 16T145 90T71 200T44 334Q44 406 71 468T145 578T255 652T389 679Q461 679 523 652T633 578T707 469T734 334ZM701 334Q701 398 677 455T610 554T510 621T389 646Q325 646 269 622T170 555T103 455T78 334Q78 270 102 214T169 115T268 48T389 23Q453 23 510 47T609 114T676 213T701 334ZM541 189Q514 157 477 140T393 122Q350 122 312 138T246 183T202 251T185 335Q185 381 201 420T246 487T312 531T393 547Q440 547 477 530T540 481L512 453Q492 479 460 495T393 511Q360 511 330 499T276 463T240 407T226 335Q226 297 239 265T276 209T329 172T393 158Q429 158 460 174T512 216L541 189Z"  />
<glyph unicode="&#xAA;" horiz-adv-x="337" d="M216 326V359Q203 342 181 330T129 318Q109 318 91 325T60 345T38 377T29 422Q29 472 59 498T129 524Q159 524 181 514T216 486V531Q216 560 199 575T153 591Q133 591 112 582T72 552L43 600Q69 625 101 636T166 648Q220 648 254 622T289 532V326H216ZM156 366Q174 366 190 374T216 399V446Q206 463 190 471T156 479Q132 479 117 464T102 423Q102 397 117 382T156 366Z"  />
<glyph unicode="&#xAB;" horiz-adv-x="424" d="M307 63L182 243L307 420H394L269 243L394 63H307ZM155 63L30 243L155 420H242L117 243L242 63H155Z"  />
<glyph unicode="&#xAC;" horiz-adv-x="446" d="M413 206H345V397H29V462H413V206Z"  />
<glyph unicode="&#xAD;" horiz-adv-x="269" d="M30 199V285H239V199H30Z"  />
<glyph unicode="&#xAE;" horiz-adv-x="494" d="M459 465Q459 421 443 383T398 315T330 270T247 253Q203 253 165 269T97 315T52 382T35 465Q35 509 51 548T97 615T164 660T247 677Q291 677 330 661T397 616T442 548T459 465ZM429 465Q429 503 415 536T376 594T318 633T247 647Q209 647 176 633T118 595T79 537T65 465Q65 427 79 394T118 337T176 298T247 283Q285 283 318 297T376 336T415 394T429 465ZM305 343L242 439H199V343H166V586H265Q296 586 319 566T343 512Q343 492 336 478T318 456T297 444T281 440L346 343H305ZM309 512Q309 532 295 544T265 557H199V469H265Q281 469 295 481T309 512Z"  />
<glyph unicode="&#xAF;" horiz-adv-x="309" d="M0 567V627H309V567H0Z"  />
<glyph unicode="&#xB0;" horiz-adv-x="300" d="M278 549Q278 522 268 499T241 459T200 431T149 421Q123 421 100 431T59 458T32 499T22 549Q22 575 32 598T59 639T99 667T149 677Q176 677 199 667T240 640T268 599T278 549ZM220 549Q220 578 199 598T149 619Q120 619 100 599T80 549Q80 520 100 500T149 479Q178 479 199 499T220 549Z"  />
<glyph unicode="&#xB1;" horiz-adv-x="442" d="M256 316V137H186V316H29V380H186V552H256V380H413V316H256ZM29 17V82H413V17H29Z"  />
<glyph unicode="&#xB2;" horiz-adv-x="337" d="M39 421V478Q95 529 131 564T189 624T219 669T228 707Q228 735 210 750T165 765Q136 765 113 751T75 715L31 762Q56 794 91 810T168 827Q227 827 265 798T304 711Q304 687 295 663T265 613T215 555T143 483H307V421H39Z"  />
<glyph unicode="&#xB3;" horiz-adv-x="337" d="M308 531Q308 479 271 447T167 414Q117 414 82 432T27 479L71 526Q88 503 112 490T164 476Q198 476 215 492T232 536Q232 571 209 583T156 595Q145 595 135 595T120 594V656Q125 655 135 655T154 655Q187 655 206 668T226 710Q226 738 208 751T161 765Q110 765 74 720L31 764Q54 793 88 810T167 827Q228 827 265 799T302 719Q302 683 279 658T224 628Q239 626 254 619T281 599T300 570T308 531Z"  />
<glyph unicode="&#xB4;" horiz-adv-x="202" d="M68 556H0L110 700H202L68 556Z"  />
<glyph unicode="&#xB5;" horiz-adv-x="497" d="M159 -184H59V483H159V153Q159 112 178 94T229 75Q261 75 286 95T326 142V483H426V123Q426 101 434 89T461 76Q468 76 478 78L485 -6Q477 -9 465 -10T438 -12Q390 -12 364 9T330 74Q313 37 284 13T219 -12Q194 -12 180 -5T159 14V-184Z"  />
<glyph unicode="&#xB6;" horiz-adv-x="449" d="M336 -100V614H252V-100H199V323Q163 323 132 336T78 373T41 428T27 495Q27 531 40 562T77 616T132 653T199 667H390V-100H336Z"  />
<glyph unicode="&#xB7;" horiz-adv-x="242" d="M188 245Q188 218 169 198T121 178Q93 178 74 198T54 245Q54 272 73 292T121 312Q149 312 168 292T188 245Z"  />
<glyph unicode="&#xB8;" horiz-adv-x="195" d="M94 -194Q65 -194 40 -185T0 -163L21 -119Q55 -147 92 -147Q112 -147 127 -138T142 -110Q142 -96 134 -88T112 -80Q94 -80 82 -94L43 -72L74 11H127L101 -54Q115 -43 133 -43Q159 -43 177 -62T195 -111Q195 -149 166 -171T94 -194Z"  />
<glyph unicode="&#xB9;" horiz-adv-x="248" d="M117 421V722L55 658L11 704L128 821H194V421H117Z"  />
<glyph unicode="&#xBA;" horiz-adv-x="353" d="M176 318Q141 318 114 331T69 367T41 420T31 483Q31 516 40 546T68 598T114 634T176 648Q212 648 239 635T284 599T312 546T322 483Q322 450 313 420T285 368T239 332T176 318ZM176 378Q212 378 229 408T246 483Q246 528 229 557T176 587Q141 587 124 558T107 483Q107 438 124 408T176 378Z"  />
<glyph unicode="&#xBB;" horiz-adv-x="424" d="M117 63H30L155 243L30 420H117L242 243L117 63ZM269 63H182L307 243L182 420H269L394 243L269 63Z"  />
<glyph unicode="&#xBC;" horiz-adv-x="712" d="M117 267V568L55 504L11 550L128 667H194V267H117ZM645 94V0H569V94H398V151L545 400H645V155H690V94H645ZM569 325L469 155H569V325ZM192 0H135L487 667H544L192 0Z"  />
<glyph unicode="&#xBD;" horiz-adv-x="746" d="M117 267V568L55 504L11 550L128 667H194V267H117ZM448 0V57Q504 108 540 143T598 203T628 248T637 286Q637 314 619 329T574 344Q545 344 522 330T484 294L440 341Q465 373 500 389T577 406Q636 406 674 377T713 290Q713 266 704 242T674 192T624 134T552 62H716V0H448ZM192 0H135L487 667H544L192 0Z"  />
<glyph unicode="&#xBE;" horiz-adv-x="778" d="M712 94V0H636V94H465V151L612 400H712V155H757V94H712ZM636 325L536 155H636V325ZM258 0H201L553 667H610L258 0ZM308 377Q308 325 271 293T167 260Q117 260 82 278T27 325L71 372Q88 349 112 336T164 322Q198 322 215 338T232 382Q232 417 209 429T156 441Q145 441 135 441T120 440V502Q125 501 135 501T154 501Q187 501 206 514T226 556Q226 584 208 597T161 611Q110 611 74 566L31 610Q54 639 88 656T167 673Q228 673 265 645T302 565Q302 529 279 504T224 474Q239 472 254 465T281 445T300 416T308 377Z"  />
<glyph unicode="&#xBF;" horiz-adv-x="338" d="M232 287Q263 253 263 202Q263 173 254 151T230 111T198 78T167 47T143 14T133 -27Q133 -55 153 -77T212 -99Q244 -99 268 -86T312 -48L367 -119Q335 -157 291 -176T195 -196Q155 -196 123 -185T69 -153T34 -106T22 -47Q22 -13 33 13T60 60T95 98T130 132T157 168T168 210Q168 223 162 236T148 257L232 287ZM195 493Q223 493 243 474T263 426Q263 399 243 380T195 360Q168 360 148 379T128 426Q128 454 148 473T195 493Z"  />
<glyph unicode="&#xC0;" horiz-adv-x="536" d="M413 0L377 132H158L122 0H2L201 667H334L533 0H413ZM268 549L181 230H355L268 549ZM251 723L117 867H210L319 723H251Z"  />
<glyph unicode="&#xC1;" horiz-adv-x="536" d="M413 0L377 132H158L122 0H2L201 667H334L533 0H413ZM268 549L181 230H355L268 549ZM285 723H217L327 867H419L285 723Z"  />
<glyph unicode="&#xC2;" horiz-adv-x="536" d="M334 723L267 820L203 723H143L222 867H313L394 723H334ZM413 0L377 132H158L122 0H2L201 667H334L533 0H413ZM268 549L181 230H355L268 549Z"  />
<glyph unicode="&#xC3;" horiz-adv-x="536" d="M413 0L377 132H158L122 0H2L201 667H334L533 0H413ZM268 549L181 230H355L268 549ZM318 721Q295 721 281 733T256 761T237 789T215 802Q201 802 191 784T181 727H127Q127 787 150 824T219 861Q242 861 256 849T280 821T300 794T322 781Q336 781 345 798T355 855H409Q409 795 386 758T318 721Z"  />
<glyph unicode="&#xC4;" horiz-adv-x="536" d="M416 774Q416 751 399 735T359 718Q336 718 320 734T303 774Q303 797 319 813T359 830Q382 830 399 814T416 774ZM234 774Q234 751 218 735T178 718Q155 718 138 734T121 774Q121 797 138 813T178 830Q201 830 217 814T234 774ZM413 0L377 132H158L122 0H2L201 667H334L533 0H413ZM268 549L181 230H355L268 549Z"  />
<glyph unicode="&#xC5;" horiz-adv-x="536" d="M413 0L377 132H158L122 0H2L201 667H334L533 0H413ZM268 549L181 230H355L268 549ZM268 691Q249 691 232 698T202 719T182 749T174 786Q174 805 181 822T202 852T232 872T268 880Q287 880 304 873T334 852T354 822T362 786Q362 766 355 749T335 719T305 699T268 691ZM268 738Q288 738 301 752T315 786Q315 806 302 819T268 833Q249 833 235 820T221 786Q221 766 235 752T268 738Z"  />
<glyph unicode="&#xC6;" horiz-adv-x="772" d="M365 0V132H182L123 0H4L319 667H730V570H476V389H723V291H476V98H730V0H365ZM365 549L223 230H365V549Z"  />
<glyph unicode="&#xC7;" horiz-adv-x="547" d="M305 -190Q276 -190 251 -181T211 -159L232 -115Q266 -143 303 -143Q323 -143 338 -134T353 -106Q353 -92 345 -84T323 -76Q305 -76 293 -90L254 -68L276 -9Q221 -2 177 26T103 99T56 203T39 333Q39 408 58 471T112 581T198 652T311 678Q354 678 387 666T446 633T490 586T522 531L430 490Q413 530 383 555T311 580Q274 580 245 562T195 510T163 432T152 333Q152 280 163 235T194 157T244 106T311 87Q355 87 385 115T431 185L523 144Q511 116 494 89T454 41T399 6T327 -11L312 -50Q326 -39 344 -39Q370 -39 388 -58T406 -107Q406 -145 377 -167T305 -190Z"  />
<glyph unicode="&#xC8;" horiz-adv-x="472" d="M64 0V667H429V570H175V389H422V291H175V98H429V0H64ZM229 723L95 867H188L297 723H229Z"  />
<glyph unicode="&#xC9;" horiz-adv-x="472" d="M263 723H195L305 867H397L263 723ZM64 0V667H429V570H175V389H422V291H175V98H429V0H64Z"  />
<glyph unicode="&#xCA;" horiz-adv-x="472" d="M313 723L246 820L182 723H122L201 867H292L373 723H313ZM64 0V667H429V570H175V389H422V291H175V98H429V0H64Z"  />
<glyph unicode="&#xCB;" horiz-adv-x="472" d="M395 774Q395 751 378 735T338 718Q315 718 299 734T282 774Q282 797 298 813T338 830Q361 830 378 814T395 774ZM213 774Q213 751 197 735T157 718Q134 718 117 734T100 774Q100 797 117 813T157 830Q180 830 196 814T213 774ZM64 0V667H429V570H175V389H422V291H175V98H429V0H64Z"  />
<glyph unicode="&#xCC;" horiz-adv-x="239" d="M64 0V667H175V0H64ZM104 723L-30 867H63L172 723H104Z"  />
<glyph unicode="&#xCD;" horiz-adv-x="239" d="M64 0V667H175V0H64ZM137 723H69L179 867H271L137 723Z"  />
<glyph unicode="&#xCE;" horiz-adv-x="239" d="M187 723L120 820L56 723H-4L75 867H166L247 723H187ZM64 0V667H175V0H64Z"  />
<glyph unicode="&#xCF;" horiz-adv-x="239" d="M270 774Q270 751 253 735T213 718Q190 718 174 734T157 774Q157 797 173 813T213 830Q236 830 253 814T270 774ZM88 774Q88 751 72 735T32 718Q9 718 -8 734T-25 774Q-25 797 -8 813T32 830Q55 830 71 814T88 774ZM64 0V667H175V0H64Z"  />
<glyph unicode="&#xD0;" horiz-adv-x="606" d="M88 0V287H14V369H88V667H287Q354 667 406 642T495 573T549 467T568 333Q568 260 550 199T495 94T407 25T287 0H88ZM287 98Q328 98 359 115T411 164T443 238T454 333Q454 385 444 429T412 504T360 552T287 570H199V369H313V287H199V98H287Z"  />
<glyph unicode="&#xD1;" horiz-adv-x="592" d="M344 721Q321 721 307 733T282 761T263 789T241 802Q227 802 217 784T207 727H153Q153 787 176 824T245 861Q268 861 282 849T306 821T326 794T348 781Q362 781 371 798T381 855H435Q435 795 412 758T344 721ZM422 0L175 431V0H64V667H176L417 248V667H528V0H422Z"  />
<glyph unicode="&#xD2;" horiz-adv-x="612" d="M289 723L155 867H248L357 723H289ZM306 -12Q243 -12 193 14T109 87T57 196T39 333Q39 406 57 469T109 579T193 651T306 678Q369 678 419 652T503 579T555 470T573 333Q573 259 555 196T503 87T419 15T306 -12ZM306 87Q343 87 372 106T420 158T450 236T460 333Q460 385 450 430T421 509T372 561T306 580Q268 580 240 561T192 509T162 431T152 333Q152 281 162 236T191 158T239 106T306 87Z"  />
<glyph unicode="&#xD3;" horiz-adv-x="612" d="M323 723H255L365 867H457L323 723ZM306 -12Q243 -12 193 14T109 87T57 196T39 333Q39 406 57 469T109 579T193 651T306 678Q369 678 419 652T503 579T555 470T573 333Q573 259 555 196T503 87T419 15T306 -12ZM306 87Q343 87 372 106T420 158T450 236T460 333Q460 385 450 430T421 509T372 561T306 580Q268 580 240 561T192 509T162 431T152 333Q152 281 162 236T191 158T239 106T306 87Z"  />
<glyph unicode="&#xD4;" horiz-adv-x="612" d="M373 723L306 820L242 723H182L261 867H352L433 723H373ZM306 -12Q243 -12 193 14T109 87T57 196T39 333Q39 406 57 469T109 579T193 651T306 678Q369 678 419 652T503 579T555 470T573 333Q573 259 555 196T503 87T419 15T306 -12ZM306 87Q343 87 372 106T420 158T450 236T460 333Q460 385 450 430T421 509T372 561T306 580Q268 580 240 561T192 509T162 431T152 333Q152 281 162 236T191 158T239 106T306 87Z"  />
<glyph unicode="&#xD5;" horiz-adv-x="612" d="M306 -12Q243 -12 193 14T109 87T57 196T39 333Q39 406 57 469T109 579T193 651T306 678Q369 678 419 652T503 579T555 470T573 333Q573 259 555 196T503 87T419 15T306 -12ZM306 87Q343 87 372 106T420 158T450 236T460 333Q460 385 450 430T421 509T372 561T306 580Q268 580 240 561T192 509T162 431T152 333Q152 281 162 236T191 158T239 106T306 87ZM357 721Q334 721 320 733T295 761T276 789T254 802Q240 802 230 784T220 727H166Q166 787 189 824T258 861Q281 861 295 849T319 821T339 794T361 781Q375 781 384 798T394 855H448Q448 795 425 758T357 721Z"  />
<glyph unicode="&#xD6;" horiz-adv-x="612" d="M454 774Q454 751 437 735T397 718Q374 718 358 734T341 774Q341 797 357 813T397 830Q420 830 437 814T454 774ZM272 774Q272 751 256 735T216 718Q193 718 176 734T159 774Q159 797 176 813T216 830Q239 830 255 814T272 774ZM306 -12Q243 -12 193 14T109 87T57 196T39 333Q39 406 57 469T109 579T193 651T306 678Q369 678 419 652T503 579T555 470T573 333Q573 259 555 196T503 87T419 15T306 -12ZM306 87Q343 87 372 106T420 158T450 236T460 333Q460 385 450 430T421 509T372 561T306 580Q268 580 240 561T192 509T162 431T152 333Q152 281 162 236T191 158T239 106T306 87Z"  />
<glyph unicode="&#xD7;" horiz-adv-x="442" d="M221 288L97 165L51 210L175 334L51 458L97 504L221 380L345 504L391 458L267 334L391 210L345 165L221 288Z"  />
<glyph unicode="&#xD8;" horiz-adv-x="612" d="M306 -12Q264 -12 229 -1T164 32L145 0H69L115 79Q78 126 59 190T39 333Q39 406 57 469T109 579T193 651T306 678Q346 678 380 667T444 636L462 667H537L493 591Q532 544 552 478T573 333Q573 259 555 196T503 87T419 15T306 -12ZM306 87Q343 87 372 106T420 158T450 236T460 333Q460 423 431 487L218 123Q254 87 306 87ZM152 333Q152 248 178 185L391 546Q355 580 306 580Q268 580 240 561T192 509T162 431T152 333Z"  />
<glyph unicode="&#xD9;" horiz-adv-x="592" d="M296 -12Q187 -12 126 49T64 224V667H175V223Q175 156 206 121T296 86Q354 86 385 121T417 223V667H528V224Q528 110 467 49T296 -12ZM279 723L145 867H238L347 723H279Z"  />
<glyph unicode="&#xDA;" horiz-adv-x="592" d="M313 723H245L355 867H447L313 723ZM296 -12Q187 -12 126 49T64 224V667H175V223Q175 156 206 121T296 86Q354 86 385 121T417 223V667H528V224Q528 110 467 49T296 -12Z"  />
<glyph unicode="&#xDB;" horiz-adv-x="592" d="M363 723L296 820L232 723H172L251 867H342L423 723H363ZM296 -12Q187 -12 126 49T64 224V667H175V223Q175 156 206 121T296 86Q354 86 385 121T417 223V667H528V224Q528 110 467 49T296 -12Z"  />
<glyph unicode="&#xDC;" horiz-adv-x="592" d="M445 774Q445 751 428 735T388 718Q365 718 349 734T332 774Q332 797 348 813T388 830Q411 830 428 814T445 774ZM263 774Q263 751 247 735T207 718Q184 718 167 734T150 774Q150 797 167 813T207 830Q230 830 246 814T263 774ZM296 -12Q187 -12 126 49T64 224V667H175V223Q175 156 206 121T296 86Q354 86 385 121T417 223V667H528V224Q528 110 467 49T296 -12Z"  />
<glyph unicode="&#xDD;" horiz-adv-x="521" d="M206 0V278L-1 667H122L261 382L400 667H522L316 278V0H206ZM278 723H210L320 867H412L278 723Z"  />
<glyph unicode="&#xDE;" horiz-adv-x="513" d="M64 0V667H175V553H291Q340 553 377 536T438 491T475 425T488 345Q488 303 476 266T439 201T377 156T291 139H175V0H64ZM278 236Q323 236 349 266T375 345Q375 395 349 425T278 456H175V236H278Z"  />
<glyph unicode="&#xDF;" horiz-adv-x="556" d="M541 133Q541 104 529 78T496 31T443 0T372 -12Q312 -12 275 7T207 58L249 128Q266 106 295 87T364 68Q399 68 420 86T441 131Q441 154 425 168T384 194T331 216T278 244T237 287T220 354Q220 391 238 414T277 456T316 490T334 529Q334 556 311 572T255 589Q216 589 189 566T162 494V0H63V494Q63 532 76 565T114 623T175 662T256 677Q292 677 324 667T381 639T420 596T435 541Q435 500 417 476T376 433T335 399T316 359Q316 338 332 325T374 302T428 281T483 252T524 206T541 133Z"  />
<glyph unicode="&#xE0;" horiz-adv-x="467" d="M309 0V49Q287 19 253 4T182 -12Q153 -12 126 -2T79 29T46 80T34 149Q34 188 46 217T78 266T126 296T182 306Q219 306 253 292T309 248V318Q309 362 285 386T215 410Q149 410 95 355L56 425Q93 462 139 478T233 495Q271 495 303 486T358 457T395 406T408 330V0H309ZM218 57Q245 57 270 71T309 110V183Q295 209 270 223T218 237Q179 237 157 212T134 147Q134 108 156 83T218 57ZM216 556L82 700H175L284 556H216Z"  />
<glyph unicode="&#xE1;" horiz-adv-x="467" d="M309 0V49Q287 19 253 4T182 -12Q153 -12 126 -2T79 29T46 80T34 149Q34 188 46 217T78 266T126 296T182 306Q219 306 253 292T309 248V318Q309 362 285 386T215 410Q149 410 95 355L56 425Q93 462 139 478T233 495Q271 495 303 486T358 457T395 406T408 330V0H309ZM218 57Q245 57 270 71T309 110V183Q295 209 270 223T218 237Q179 237 157 212T134 147Q134 108 156 83T218 57ZM250 556H182L292 700H384L250 556Z"  />
<glyph unicode="&#xE2;" horiz-adv-x="467" d="M309 0V49Q287 19 253 4T182 -12Q153 -12 126 -2T79 29T46 80T34 149Q34 188 46 217T78 266T126 296T182 306Q219 306 253 292T309 248V318Q309 362 285 386T215 410Q149 410 95 355L56 425Q93 462 139 478T233 495Q271 495 303 486T358 457T395 406T408 330V0H309ZM218 57Q245 57 270 71T309 110V183Q295 209 270 223T218 237Q179 237 157 212T134 147Q134 108 156 83T218 57ZM300 556L233 653L169 556H109L188 700H279L360 556H300Z"  />
<glyph unicode="&#xE3;" horiz-adv-x="467" d="M309 0V49Q287 19 253 4T182 -12Q153 -12 126 -2T79 29T46 80T34 149Q34 188 46 217T78 266T126 296T182 306Q219 306 253 292T309 248V318Q309 362 285 386T215 410Q149 410 95 355L56 425Q93 462 139 478T233 495Q271 495 303 486T358 457T395 406T408 330V0H309ZM218 57Q245 57 270 71T309 110V183Q295 209 270 223T218 237Q179 237 157 212T134 147Q134 108 156 83T218 57ZM284 554Q261 554 247 566T222 594T203 622T181 635Q167 635 157 617T147 560H93Q93 620 116 657T185 694Q208 694 222 682T246 654T266 627T288 614Q302 614 311 631T321 688H375Q375 628 352 591T284 554Z"  />
<glyph unicode="&#xE4;" horiz-adv-x="467" d="M309 0V49Q287 19 253 4T182 -12Q153 -12 126 -2T79 29T46 80T34 149Q34 188 46 217T78 266T126 296T182 306Q219 306 253 292T309 248V318Q309 362 285 386T215 410Q149 410 95 355L56 425Q93 462 139 478T233 495Q271 495 303 486T358 457T395 406T408 330V0H309ZM218 57Q245 57 270 71T309 110V183Q295 209 270 223T218 237Q179 237 157 212T134 147Q134 108 156 83T218 57ZM382 607Q382 584 365 568T325 551Q302 551 286 567T269 607Q269 630 285 646T325 663Q348 663 365 647T382 607ZM200 607Q200 584 184 568T144 551Q121 551 104 567T87 607Q87 630 104 646T144 663Q167 663 183 647T200 607Z"  />
<glyph unicode="&#xE5;" horiz-adv-x="467" d="M309 0V49Q287 19 253 4T182 -12Q153 -12 126 -2T79 29T46 80T34 149Q34 188 46 217T78 266T126 296T182 306Q219 306 253 292T309 248V318Q309 362 285 386T215 410Q149 410 95 355L56 425Q93 462 139 478T233 495Q271 495 303 486T358 457T395 406T408 330V0H309ZM218 57Q245 57 270 71T309 110V183Q295 209 270 223T218 237Q179 237 157 212T134 147Q134 108 156 83T218 57ZM234 538Q215 538 198 545T168 566T148 596T140 633Q140 652 147 669T168 699T198 719T234 727Q253 727 270 720T300 699T320 669T328 633Q328 613 321 596T301 566T271 546T234 538ZM234 585Q254 585 267 599T281 633Q281 653 268 666T234 680Q215 680 201 667T187 633Q187 613 201 599T234 585Z"  />
<glyph unicode="&#xE6;" horiz-adv-x="745" d="M420 209Q424 150 453 111T539 71Q566 71 594 84T642 123L690 62Q659 27 617 8T531 -12Q474 -12 436 10T372 76Q349 40 306 14T203 -12Q167 -12 136 -2T83 29T47 79T34 147Q34 185 46 214T78 264T127 295T187 306Q226 306 263 292T323 249V318Q323 362 297 386T223 410Q188 410 157 397T95 355L56 425Q93 462 140 478T232 495Q289 495 325 472T376 410Q386 426 399 441T429 469T470 488T524 495Q570 495 605 475T665 421T701 339T713 237V209H420ZM617 280Q617 302 612 326T595 369T565 401T519 414Q492 414 474 401T444 369T427 326T420 280H617ZM323 183Q306 208 280 222T224 237Q184 237 159 215T134 153Q134 111 159 90T224 69Q245 69 263 77T294 99T315 131T323 167V183Z"  />
<glyph unicode="&#xE7;" horiz-adv-x="415" d="M247 -192Q218 -192 193 -183T153 -161L174 -117Q208 -145 245 -145Q265 -145 280 -136T295 -108Q295 -94 287 -86T265 -78Q247 -78 235 -92L196 -70L218 -10Q176 -5 142 16T85 70T48 147T35 242Q35 297 50 343T92 423T159 476T247 495Q301 495 336 476T394 430L343 362Q308 407 257 407Q228 407 206 394T169 359T146 307T138 242Q138 207 146 177T169 125T206 89T257 76Q307 76 343 121L394 53Q374 29 345 12T270 -11L254 -52Q268 -41 286 -41Q312 -41 330 -60T348 -109Q348 -147 319 -169T247 -192Z"  />
<glyph unicode="&#xE8;" horiz-adv-x="474" d="M252 -12Q202 -12 162 6T94 58T50 139T35 242Q35 294 49 340T90 421T155 475T242 495Q291 495 328 476T391 422T430 340T443 238V209H136Q137 179 146 154T171 110T210 81T262 70Q291 70 320 83T371 122L419 62Q388 27 345 8T252 -12ZM346 280Q346 302 340 326T322 369T290 401T241 414Q213 414 194 401T161 369T142 326T135 280H346ZM226 556L92 700H185L294 556H226Z"  />
<glyph unicode="&#xE9;" horiz-adv-x="474" d="M260 556H192L302 700H394L260 556ZM252 -12Q202 -12 162 6T94 58T50 139T35 242Q35 294 49 340T90 421T155 475T242 495Q291 495 328 476T391 422T430 340T443 238V209H136Q137 179 146 154T171 110T210 81T262 70Q291 70 320 83T371 122L419 62Q388 27 345 8T252 -12ZM346 280Q346 302 340 326T322 369T290 401T241 414Q213 414 194 401T161 369T142 326T135 280H346Z"  />
<glyph unicode="&#xEA;" horiz-adv-x="474" d="M309 556L242 653L178 556H118L197 700H288L369 556H309ZM252 -12Q202 -12 162 6T94 58T50 139T35 242Q35 294 49 340T90 421T155 475T242 495Q291 495 328 476T391 422T430 340T443 238V209H136Q137 179 146 154T171 110T210 81T262 70Q291 70 320 83T371 122L419 62Q388 27 345 8T252 -12ZM346 280Q346 302 340 326T322 369T290 401T241 414Q213 414 194 401T161 369T142 326T135 280H346Z"  />
<glyph unicode="&#xEB;" horiz-adv-x="474" d="M391 607Q391 584 374 568T334 551Q311 551 295 567T278 607Q278 630 294 646T334 663Q357 663 374 647T391 607ZM209 607Q209 584 193 568T153 551Q130 551 113 567T96 607Q96 630 113 646T153 663Q176 663 192 647T209 607ZM252 -12Q202 -12 162 6T94 58T50 139T35 242Q35 294 49 340T90 421T155 475T242 495Q291 495 328 476T391 422T430 340T443 238V209H136Q137 179 146 154T171 110T210 81T262 70Q291 70 320 83T371 122L419 62Q388 27 345 8T252 -12ZM346 280Q346 302 340 326T322 369T290 401T241 414Q213 414 194 401T161 369T142 326T135 280H346Z"  />
<glyph unicode="&#xEC;" horiz-adv-x="218" d="M59 0V483H159V0H59ZM93 556L-41 700H52L161 556H93Z"  />
<glyph unicode="&#xED;" horiz-adv-x="218" d="M126 556H58L168 700H260L126 556ZM59 0V483H159V0H59Z"  />
<glyph unicode="&#xEE;" horiz-adv-x="218" d="M176 556L109 653L45 556H-15L64 700H155L236 556H176ZM59 0V483H159V0H59Z"  />
<glyph unicode="&#xEF;" horiz-adv-x="218" d="M258 607Q258 584 241 568T201 551Q178 551 162 567T145 607Q145 630 161 646T201 663Q224 663 241 647T258 607ZM76 607Q76 584 60 568T20 551Q-3 551 -20 567T-37 607Q-37 630 -20 646T20 663Q43 663 59 647T76 607ZM59 0V483H159V0H59Z"  />
<glyph unicode="&#xF0;" horiz-adv-x="488" d="M98 542L206 589Q192 603 179 616T151 641L221 703Q260 667 295 629L384 668L405 620L330 586Q387 514 420 432T453 257Q453 198 440 149T400 64T335 8T244 -12Q193 -12 154 7T89 59T49 136T35 230Q35 280 47 323T83 399T140 451T216 470Q258 470 288 450T340 392Q326 432 301 471T244 548L120 493L98 542ZM244 76Q271 76 291 88T324 122T343 172T350 230Q350 260 344 287T324 336T291 369T244 382Q217 382 197 370T164 336T145 288T138 230Q138 200 144 172T164 123T197 89T244 76Z"  />
<glyph unicode="&#xF1;" horiz-adv-x="485" d="M326 0V329Q326 372 308 389T257 407Q225 407 199 387T159 340V0H59V483H159V418Q179 447 216 471T299 495Q365 495 395 461T426 364V0H326ZM294 554Q271 554 257 566T232 594T213 622T191 635Q177 635 167 617T157 560H103Q103 620 126 657T195 694Q218 694 232 682T256 654T276 627T298 614Q312 614 321 631T331 688H385Q385 628 362 591T294 554Z"  />
<glyph unicode="&#xF2;" horiz-adv-x="488" d="M244 -12Q193 -12 154 8T88 64T49 145T35 242Q35 293 48 339T88 419T153 474T244 495Q295 495 334 475T400 420T439 339T453 242Q453 191 440 145T400 64T335 9T244 -12ZM244 76Q271 76 291 89T324 126T343 179T350 242Q350 275 344 304T324 357T291 393T244 407Q217 407 197 394T164 357T145 305T138 242Q138 209 144 179T164 126T197 90T244 76ZM227 556L93 700H186L295 556H227Z"  />
<glyph unicode="&#xF3;" horiz-adv-x="488" d="M261 556H193L303 700H395L261 556ZM244 -12Q193 -12 154 8T88 64T49 145T35 242Q35 293 48 339T88 419T153 474T244 495Q295 495 334 475T400 420T439 339T453 242Q453 191 440 145T400 64T335 9T244 -12ZM244 76Q271 76 291 89T324 126T343 179T350 242Q350 275 344 304T324 357T291 393T244 407Q217 407 197 394T164 357T145 305T138 242Q138 209 144 179T164 126T197 90T244 76Z"  />
<glyph unicode="&#xF4;" horiz-adv-x="488" d="M310 556L243 653L179 556H119L198 700H289L370 556H310ZM244 -12Q193 -12 154 8T88 64T49 145T35 242Q35 293 48 339T88 419T153 474T244 495Q295 495 334 475T400 420T439 339T453 242Q453 191 440 145T400 64T335 9T244 -12ZM244 76Q271 76 291 89T324 126T343 179T350 242Q350 275 344 304T324 357T291 393T244 407Q217 407 197 394T164 357T145 305T138 242Q138 209 144 179T164 126T197 90T244 76Z"  />
<glyph unicode="&#xF5;" horiz-adv-x="488" d="M244 -12Q193 -12 154 8T88 64T49 145T35 242Q35 293 48 339T88 419T153 474T244 495Q295 495 334 475T400 420T439 339T453 242Q453 191 440 145T400 64T335 9T244 -12ZM244 76Q271 76 291 89T324 126T343 179T350 242Q350 275 344 304T324 357T291 393T244 407Q217 407 197 394T164 357T145 305T138 242Q138 209 144 179T164 126T197 90T244 76ZM294 554Q271 554 257 566T232 594T213 622T191 635Q177 635 167 617T157 560H103Q103 620 126 657T195 694Q218 694 232 682T256 654T276 627T298 614Q312 614 321 631T331 688H385Q385 628 362 591T294 554Z"  />
<glyph unicode="&#xF6;" horiz-adv-x="488" d="M392 607Q392 584 375 568T335 551Q312 551 296 567T279 607Q279 630 295 646T335 663Q358 663 375 647T392 607ZM210 607Q210 584 194 568T154 551Q131 551 114 567T97 607Q97 630 114 646T154 663Q177 663 193 647T210 607ZM244 -12Q193 -12 154 8T88 64T49 145T35 242Q35 293 48 339T88 419T153 474T244 495Q295 495 334 475T400 420T439 339T453 242Q453 191 440 145T400 64T335 9T244 -12ZM244 76Q271 76 291 89T324 126T343 179T350 242Q350 275 344 304T324 357T291 393T244 407Q217 407 197 394T164 357T145 305T138 242Q138 209 144 179T164 126T197 90T244 76Z"  />
<glyph unicode="&#xF7;" horiz-adv-x="443" d="M275 500Q275 478 260 463T222 447Q200 447 185 462T169 500Q169 522 184 537T222 553Q244 553 259 538T275 500ZM29 305V370H414V305H29ZM275 171Q275 149 260 134T222 119Q200 119 185 134T169 171Q169 193 184 209T222 225Q244 225 259 209T275 171Z"  />
<glyph unicode="&#xF8;" horiz-adv-x="488" d="M45 0L88 63Q62 98 49 144T35 242Q35 293 48 339T88 419T153 474T244 495Q279 495 308 485T361 458L378 483H440L398 422Q425 387 439 341T453 242Q453 191 440 145T400 64T335 9T244 -12Q174 -12 124 27L106 0H45ZM244 76Q271 76 291 89T324 126T343 179T350 242Q350 266 347 289T335 332L178 105Q205 76 244 76ZM138 242Q138 192 151 154L307 380Q282 407 244 407Q217 407 197 394T164 357T145 305T138 242Z"  />
<glyph unicode="&#xF9;" horiz-adv-x="485" d="M326 0V64Q306 34 269 11T185 -12Q120 -12 90 21T59 118V483H159V153Q159 111 177 94T228 76Q260 76 286 96T326 142V483H426V0H326ZM225 556L91 700H184L293 556H225Z"  />
<glyph unicode="&#xFA;" horiz-adv-x="485" d="M259 556H191L301 700H393L259 556ZM326 0V64Q306 34 269 11T185 -12Q120 -12 90 21T59 118V483H159V153Q159 111 177 94T228 76Q260 76 286 96T326 142V483H426V0H326Z"  />
<glyph unicode="&#xFB;" horiz-adv-x="485" d="M308 556L241 653L177 556H117L196 700H287L368 556H308ZM326 0V64Q306 34 269 11T185 -12Q120 -12 90 21T59 118V483H159V153Q159 111 177 94T228 76Q260 76 286 96T326 142V483H426V0H326Z"  />
<glyph unicode="&#xFC;" horiz-adv-x="485" d="M390 607Q390 584 373 568T333 551Q310 551 294 567T277 607Q277 630 293 646T333 663Q356 663 373 647T390 607ZM208 607Q208 584 192 568T152 551Q129 551 112 567T95 607Q95 630 112 646T152 663Q175 663 191 647T208 607ZM326 0V64Q306 34 269 11T185 -12Q120 -12 90 21T59 118V483H159V153Q159 111 177 94T228 76Q260 76 286 96T326 142V483H426V0H326Z"  />
<glyph unicode="&#xFD;" horiz-adv-x="430" d="M57 -101Q64 -105 73 -106T89 -108Q109 -108 122 -100T144 -68L164 -10L2 483H108L215 120L323 483H429L238 -91Q218 -152 183 -174T96 -196Q85 -196 69 -194T42 -189L57 -101ZM232 556H164L274 700H366L232 556Z"  />
<glyph unicode="&#xFE;" horiz-adv-x="492" d="M283 -12Q247 -12 214 6T159 64V-184H59V667H159V421Q180 457 212 476T283 495Q324 495 356 478T412 427T447 347T459 242Q459 184 447 137T412 57T357 6T283 -12ZM253 76Q279 76 298 89T330 124T349 177T356 242Q356 277 350 307T331 359T299 394T253 407Q224 407 198 388T159 341V143Q172 116 198 96T253 76Z"  />
<glyph unicode="&#xFF;" horiz-adv-x="430" d="M57 -101Q64 -105 73 -106T89 -108Q109 -108 122 -100T144 -68L164 -10L2 483H108L215 120L323 483H429L238 -91Q218 -152 183 -174T96 -196Q85 -196 69 -194T42 -189L57 -101ZM365 607Q365 584 348 568T308 551Q285 551 269 567T252 607Q252 630 268 646T308 663Q331 663 348 647T365 607ZM183 607Q183 584 167 568T127 551Q104 551 87 567T70 607Q70 630 87 646T127 663Q150 663 166 647T183 607Z"  />
<glyph unicode="&#x110;" horiz-adv-x="606" d="M88 0V287H14V369H88V667H287Q354 667 406 642T495 573T549 467T568 333Q568 260 550 199T495 94T407 25T287 0H88ZM287 98Q328 98 359 115T411 164T443 238T454 333Q454 385 444 429T412 504T360 552T287 570H199V369H313V287H199V98H287Z"  />
<glyph unicode="&#x131;" horiz-adv-x="218" d="M59 0V483H159V0H59Z"  />
<glyph unicode="&#x152;" horiz-adv-x="855" d="M448 0V77Q421 30 377 9T291 -12Q231 -12 184 14T105 87T56 196T39 333Q39 407 56 470T105 579T184 651T291 677Q333 677 377 657T448 590V667H813V570H559V389H806V291H559V98H813V0H448ZM448 460Q429 519 393 549T308 579Q269 579 240 560T192 508T162 430T152 333Q152 281 162 236T191 158T240 106T308 87Q356 87 392 117T448 206V460Z"  />
<glyph unicode="&#x153;" horiz-adv-x="788" d="M451 209Q452 179 461 154T485 110T524 81T576 70Q605 70 634 83T685 122L734 62Q702 27 659 8T567 -12Q533 -12 507 -3T460 21T426 56T401 97Q391 76 377 57T344 22T300 -2T244 -12Q193 -12 154 8T88 64T49 145T35 242Q35 293 48 339T88 419T153 474T244 495Q275 495 300 486T344 462T377 428T401 387Q411 408 425 427T458 462T502 486T557 495Q606 495 643 475T706 421T744 339T757 237V209H451ZM661 280Q660 302 655 326T637 369T604 401T555 414Q527 414 508 401T476 369T457 326T450 280H661ZM350 242Q350 275 344 305T324 357T291 393T244 407Q217 407 198 394T165 358T145 305T138 242Q138 209 144 179T164 126T197 90T244 76Q271 76 291 89T324 125T343 178T350 242Z"  />
<glyph unicode="&#x160;" horiz-adv-x="486" d="M204 723L122 867H182L249 770L313 867H373L295 723H204ZM237 -12Q165 -12 112 11T22 73L78 159Q105 128 146 108T237 87Q289 87 315 113T341 175Q341 209 319 230T264 268T192 301T120 341T64 400T42 492Q42 531 56 565T98 624T163 663T249 678Q308 678 356 660T441 606L387 522Q358 551 322 565T246 579Q205 579 180 557T155 498Q155 468 177 449T232 414T304 380T376 339T432 277T454 184Q454 143 440 108T399 46T332 4T237 -12Z"  />
<glyph unicode="&#x161;" horiz-adv-x="401" d="M158 556L76 700H136L203 603L267 700H327L249 556H158ZM198 -12Q142 -12 97 6T21 57L66 127Q88 103 123 85T196 67Q234 67 255 84T276 130Q276 153 259 167T214 191T157 213T99 241T55 286T37 357Q37 385 48 410T80 454T132 484T203 495Q254 495 293 478T362 433L320 365Q302 387 272 401T205 416Q171 416 151 400T131 360Q131 339 149 326T193 303T251 281T308 252T353 206T371 132Q371 101 359 75T325 29T270 -1T198 -12Z"  />
<glyph unicode="&#x178;" horiz-adv-x="521" d="M410 774Q410 751 393 735T353 718Q330 718 314 734T297 774Q297 797 313 813T353 830Q376 830 393 814T410 774ZM228 774Q228 751 212 735T172 718Q149 718 132 734T115 774Q115 797 132 813T172 830Q195 830 211 814T228 774ZM206 0V278L-1 667H122L261 382L400 667H522L316 278V0H206Z"  />
<glyph unicode="&#x17D;" horiz-adv-x="475" d="M192 723L110 867H170L237 770L301 867H361L283 723H192ZM38 0V92L296 570H38V667H430V577L171 98H437V0H38Z"  />
<glyph unicode="&#x17E;" horiz-adv-x="399" d="M153 556L71 700H131L198 603L262 700H322L244 556H153ZM38 0V76L231 396H38V483H356V410L163 87H360V0H38Z"  />
<glyph unicode="&#x192;" horiz-adv-x="414" d="M16 -161L106 247H54V335H126L171 539Q185 602 230 639T336 677Q362 677 385 671T427 645L387 562Q373 580 348 580Q322 580 304 563T279 514L239 335H343V247H219L129 -161H16Z"  />
<glyph unicode="&#x2C6;" horiz-adv-x="251" d="M191 556L124 653L60 556H0L79 700H170L251 556H191Z"  />
<glyph unicode="&#x2C7;" horiz-adv-x="251" d="M82 556L0 700H60L127 603L191 700H251L173 556H82Z"  />
<glyph unicode="&#x2DA;" horiz-adv-x="188" d="M94 538Q75 538 58 545T28 566T8 596T0 633Q0 652 7 669T28 699T58 719T94 727Q113 727 130 720T160 699T180 669T188 633Q188 613 181 596T161 566T131 546T94 538ZM94 585Q114 585 127 599T141 633Q141 653 128 666T94 680Q75 680 61 667T47 633Q47 613 61 599T94 585Z"  />
<glyph unicode="&#x2DC;" horiz-adv-x="282" d="M191 554Q168 554 154 566T129 594T110 622T88 635Q74 635 64 617T54 560H0Q0 620 23 657T92 694Q115 694 129 682T153 654T173 627T195 614Q209 614 218 631T228 688H282Q282 628 259 591T191 554Z"  />
<glyph unicode="&#x2013;" horiz-adv-x="527" d="M30 199V285H497V199H30Z"  />
<glyph unicode="&#x2014;" horiz-adv-x="737" d="M30 199V285H707V199H30Z"  />
<glyph unicode="&#x2018;" horiz-adv-x="243" d="M47 511Q47 562 72 605T138 677L184 641Q160 626 139 600T113 547Q119 549 129 549Q154 549 170 532T187 488Q187 462 168 443T121 423Q92 423 70 446T47 511Z"  />
<glyph unicode="&#x2019;" horiz-adv-x="243" d="M194 589Q194 538 169 495T102 422L57 459Q81 474 102 500T128 553Q126 552 121 551T112 550Q87 550 71 567T54 611Q54 638 73 657T119 677Q149 677 171 654T194 589Z"  />
<glyph unicode="&#x201A;" horiz-adv-x="242" d="M194 35Q194 -16 169 -59T102 -132L57 -95Q81 -80 102 -54T128 -1Q122 -3 112 -3Q87 -3 71 14T54 58Q54 85 73 104T119 124Q149 124 171 101T194 35Z"  />
<glyph unicode="&#x201C;" horiz-adv-x="423" d="M49 511Q49 562 74 605T140 677L186 641Q162 626 141 600T115 547Q117 548 121 548T131 549Q155 549 171 532T188 488Q188 462 170 443T123 423Q94 423 72 446T49 511ZM229 511Q229 562 254 605T320 677L366 641Q342 626 321 600T296 547Q300 549 312 549Q336 549 352 532T369 488Q369 462 350 443T304 423Q274 423 252 446T229 511Z"  />
<glyph unicode="&#x201D;" horiz-adv-x="423" d="M374 589Q374 538 349 495T283 422L237 459Q261 474 282 500T308 553Q306 552 302 551T292 550Q267 550 251 567T234 611Q234 638 253 657T300 677Q329 677 351 654T374 589ZM194 589Q194 538 169 495T102 422L57 459Q81 474 102 500T128 553Q126 552 121 551T112 550Q87 550 71 567T54 611Q54 638 73 657T119 677Q149 677 171 654T194 589Z"  />
<glyph unicode="&#x201E;" horiz-adv-x="423" d="M194 35Q194 -16 169 -59T102 -132L57 -95Q81 -80 102 -54T128 -1Q122 -3 112 -3Q87 -3 71 14T54 58Q54 85 73 104T119 124Q149 124 171 101T194 35ZM374 35Q374 -16 349 -59T283 -132L237 -95Q261 -80 282 -54T308 -1Q302 -3 292 -3Q267 -3 251 14T234 58Q234 85 253 104T300 124Q329 124 351 101T374 35Z"  />
<glyph unicode="&#x2020;" horiz-adv-x="270" d="M159 531L163 327H106L111 531L22 527V579L111 576L106 677H163L159 576L248 579V527L159 531Z"  />
<glyph unicode="&#x2021;" horiz-adv-x="270" d="M248 527L159 531V327L248 331V279L159 282L163 180H106L110 282L22 279V331L110 327V531L22 527V579L110 576L106 677H163L159 576L248 579V527Z"  />
<glyph unicode="&#x2022;" horiz-adv-x="358" d="M293 242Q293 219 284 199T260 163T225 139T180 130Q157 130 137 139T101 163T76 198T67 242Q67 266 76 286T100 322T136 346T180 355Q204 355 224 346T260 322T284 287T293 242Z"  />
<glyph unicode="&#x2026;" horiz-adv-x="726" d="M188 57Q188 30 168 10T120 -11Q93 -11 74 9T54 57Q54 84 73 104T120 124Q148 124 168 104T188 57ZM430 57Q430 30 410 10T362 -11Q335 -11 316 9T296 57Q296 84 315 104T362 124Q390 124 410 104T430 57ZM672 57Q672 30 652 10T604 -11Q577 -11 558 9T538 57Q538 84 557 104T604 124Q632 124 652 104T672 57Z"  />
<glyph unicode="&#x2030;" horiz-adv-x="980" d="M318 511Q318 476 308 446T278 394T232 360T172 347Q139 347 112 359T66 394T37 446T26 511Q26 546 36 576T66 629T112 664T172 677Q205 677 232 665T278 630T307 577T318 511ZM185 0H129L480 667H537L185 0ZM637 152Q637 117 627 87T597 35T551 1T491 -12Q458 -12 431 0T386 35T357 87T346 152Q346 187 356 217T385 270T431 306T491 319Q524 319 551 306T597 271T626 218T637 152ZM246 511Q246 559 226 587T172 616Q138 616 118 588T98 511Q98 465 118 436T172 407Q206 407 226 436T246 511ZM566 152Q566 200 546 229T491 258Q457 258 437 229T417 152Q417 106 437 78T491 49Q525 49 545 77T566 152ZM954 152Q954 117 944 87T914 35T868 1T808 -12Q775 -12 748 0T703 35T674 87T663 152Q663 187 673 217T702 270T748 306T808 319Q841 319 868 306T914 271T943 218T954 152ZM883 152Q883 200 863 229T808 258Q774 258 754 229T734 152Q734 106 754 78T808 49Q842 49 862 77T883 152Z"  />
<glyph unicode="&#x2039;" horiz-adv-x="272" d="M155 63L30 243L155 420H242L117 243L242 63H155Z"  />
<glyph unicode="&#x203A;" horiz-adv-x="272" d="M117 63H30L155 243L30 420H117L242 243L117 63Z"  />
<glyph unicode="&#x2044;" horiz-adv-x="138" d="M-79 0H-136L216 667H273L-79 0Z"  />
<glyph unicode="&#x20AC;" horiz-adv-x="565" d="M330 -12Q278 -12 235 5T159 55T102 132T68 232H20V296H59Q58 305 58 314T58 333Q58 343 58 353T59 373H20V437H68Q79 491 102 535T158 611T235 660T330 678Q373 678 406 666T465 633T509 586T541 531L449 490Q432 530 402 555T330 580Q276 580 238 542T183 437H373V373H173Q172 363 172 354T171 333Q171 323 171 314T172 296H373V232H182Q199 166 237 127T330 87Q374 87 404 115T450 185L542 144Q529 115 511 87T468 37T408 2T330 -12Z"  />
<glyph unicode="&#x2122;" horiz-adv-x="414" d="M351 447V629L286 447H278L213 629V447H185V667H228L282 509L336 667H379V447H351ZM97 641V447H69V641H17V667H149V641H97Z"  />
<glyph unicode="&#xF656;" horiz-adv-x="248" d="M117 0V301L55 237L11 283L128 400H194V0H117Z"  />
<glyph unicode="&#xF657;" horiz-adv-x="337" d="M39 0V57Q95 108 131 143T189 203T219 248T228 286Q228 314 210 329T165 344Q136 344 113 330T75 294L31 341Q56 373 91 389T168 406Q227 406 265 377T304 290Q304 266 295 242T265 192T215 134T143 62H307V0H39Z"  />
<glyph unicode="&#xF658;" horiz-adv-x="337" d="M308 110Q308 58 271 26T167 -7Q117 -7 82 11T27 58L71 105Q88 82 112 69T164 55Q198 55 215 71T232 115Q232 150 209 162T156 174Q145 174 135 174T120 173V235Q125 234 135 234T154 234Q187 234 206 247T226 289Q226 317 208 330T161 344Q110 344 74 299L31 343Q54 372 88 389T167 406Q228 406 265 378T302 298Q302 262 279 237T224 207Q239 205 254 198T281 178T300 149T308 110Z"  />
<glyph unicode="&#xF659;" horiz-adv-x="337" d="M271 94V0H195V94H24V151L171 400H271V155H316V94H271ZM195 325L95 155H195V325Z"  />


</font>
</defs>
</svg>
